<?xml version="1.0" standalone="no"?>
<!DOCTYPE svg PUBLIC "-//W3C//DTD SVG 20010904//EN"
 "http://www.w3.org/TR/2001/REC-SVG-20010904/DTD/svg10.dtd">
<svg version="1.0" xmlns="http://www.w3.org/2000/svg"
  viewBox="0 0 48.000000 48.000000"
 preserveAspectRatio="xMidYMid meet">

<g transform="translate(0.000000,48.000000) scale(0.100000,-0.100000)"
fill="#ffcc00" stroke="none">
<path d="M137 342 c-48 -48 -87 -94 -87 -102 0 -20 171 -190 190 -190 20 0
190 171 190 190 0 20 -170 190 -190 190 -8 0 -55 -39 -103 -88z m195 -10 c43
-43 78 -84 78 -92 0 -18 -152 -170 -170 -170 -18 0 -170 152 -170 170 0 8 35
49 78 92 43 43 85 78 92 78 8 0 49 -35 92 -78z"/>
<path d="M231 327 c0 -11 -6 -15 -12 -11 -6 3 -3 -6 6 -20 l18 -27 -29 7 c-28
6 -28 6 -12 -12 17 -17 17 -19 -9 -46 l-27 -28 26 -27 c23 -22 29 -24 42 -13
9 7 16 19 16 26 0 9 12 14 34 14 51 0 55 19 13 53 -21 16 -37 38 -37 49 0 10
-4 17 -9 13 -5 -3 -12 5 -14 17 -3 16 -5 18 -6 5z"/>
</g>
</svg>
