<!-- icon666.com - MILLIONS vector ICONS FREE --><svg viewBox="0 0 512 512" xmlns="http://www.w3.org/2000/svg"><g id="_18_Ice" data-name="18 Ice"><path d="m499.44 418.53-210-363.7c-14.87-25.75-52-25.75-66.92 0l-210 363.7c-14.87 25.76 3.72 58 33.46 58h420.02c29.72-.05 48.31-32.24 33.44-58zm-105.91 18h-275.06c-31.15 0-50.62-33.72-35-60.69l137.53-238.26c15.57-27 54.51-27 70.08 0l137.49 238.21c15.58 26.97-3.89 60.69-35.04 60.69z" fill="#8cd5ee"></path><path d="m247.93 283.29-10.93 6.31a16.14 16.14 0 0 0 -8.07 14v12.61a16.17 16.17 0 0 0 8.07 14l10.93 6.3a16.11 16.11 0 0 0 16.14 0l10.93-6.3a16.17 16.17 0 0 0 8.07-14v-12.63a16.14 16.14 0 0 0 -8.07-14l-10.93-6.31a16.16 16.16 0 0 0 -16.14.02z" fill="#8cd5ee"></path><g fill="#1e72a1"><path d="m76.53 313.73a6 6 0 0 1 -5.19-9l5.19-9a6 6 0 0 1 10.4 6l-5.19 9a6 6 0 0 1 -5.21 3z"></path><path d="m466 482.48h-420a44.64 44.64 0 0 1 -38.66-67l53.06-91.91a6 6 0 0 1 10.4 6l-53.04 91.97a32.63 32.63 0 0 0 28.24 48.94h420a32.63 32.63 0 0 0 28.26-48.94l-210-363.71a32.64 32.64 0 0 0 -56.52 0l-129.9 225a6 6 0 0 1 -10.4-6l129.9-225a44.65 44.65 0 0 1 77.32 0l210 363.7a44.63 44.63 0 0 1 -38.66 66.95z"></path><path d="m393.53 442.48h-275.06a46.46 46.46 0 0 1 -40.24-69.69l137.53-238.21a46 46 0 0 1 40.24-23.24 46 46 0 0 1 40.24 23.24l137.53 238.21a46.46 46.46 0 0 1 -40.24 69.69zm-137.53-319.14a34.13 34.13 0 0 0 -29.85 17.24l-137.53 238.21a34.46 34.46 0 0 0 29.85 51.69h275.06a34.46 34.46 0 0 0 29.85-51.69l-137.53-238.21a34.13 34.13 0 0 0 -29.85-17.24z"></path><path d="m256 344.64a22.13 22.13 0 0 1 -11.07-3l-10.93-6.27a22.22 22.22 0 0 1 -11.07-19.18v-12.61a22.23 22.23 0 0 1 11.07-19.18l10.93-6.3a22.16 22.16 0 0 1 22.14 0l10.93 6.3a22.23 22.23 0 0 1 11.07 19.18v12.61a22.22 22.22 0 0 1 -11.07 19.18l-10.93 6.31a22.13 22.13 0 0 1 -11.07 2.96zm-5.07-56.15-10.93 6.31a10.18 10.18 0 0 0 -5.07 8.78v12.61a10.19 10.19 0 0 0 5.07 8.81l10.93 6.31a10.2 10.2 0 0 0 10.14 0l10.93-6.31a10.19 10.19 0 0 0 5.07-8.79v-12.63a10.18 10.18 0 0 0 -5.07-8.78l-10.93-6.31a10.15 10.15 0 0 0 -10.14 0z"></path><path d="m256 392.57a6 6 0 0 1 -6-6v-48.09a6 6 0 0 1 12 0v48.09a6 6 0 0 1 -6 6z"></path><path d="m256 287.29a6 6 0 0 1 -6-6v-48.09a6 6 0 0 1 12 0v48.09a6 6 0 0 1 -6 6z"></path><path d="m236.78 381.93a6 6 0 0 1 -4.24-10.24l19.22-19.22a6 6 0 0 1 8.48 8.48l-19.24 19.23a6 6 0 0 1 -4.22 1.75z"></path><path d="m275.22 381.93a6 6 0 0 1 -4.24-1.75l-19.22-19.18a6 6 0 0 1 8.48-8.48l19.22 19.22a6 6 0 0 1 -4.24 10.24z"></path><path d="m256 269.06a6 6 0 0 1 -4.24-1.76l-19.22-19.22a6 6 0 0 1 8.46-8.48l19.22 19.22a6 6 0 0 1 -4.22 10.24z"></path><path d="m256 269.06a6 6 0 0 1 -4.24-10.24l19.24-19.22a6 6 0 1 1 8.48 8.48l-19.24 19.22a6 6 0 0 1 -4.24 1.76z"></path><path d="m322.4 354.23a6 6 0 0 1 -3-.81l-41.65-24a6 6 0 0 1 6-10.4l41.65 24a6 6 0 0 1 -3 11.2z"></path><path d="m231.23 301.58a6 6 0 0 1 -3-.8l-15.57-9-.22-.12-25.86-14.93a6 6 0 0 1 6-10.39l25.65 14.81.22.12 15.78 9.11a6 6 0 0 1 -3 11.19z"></path><path d="m303.58 365.56a6 6 0 0 1 -5.79-4.45l-7-26.26a6 6 0 1 1 11.59-3.1l7 26.25a6 6 0 0 1 -5.8 7.56z"></path><path d="m296.55 339.3a6 6 0 0 1 -1.55-11.8l26.26-7a6 6 0 0 1 3.1 11.59l-26.26 7a5.9 5.9 0 0 1 -1.55.21z"></path><path d="m189.19 299.51a6 6 0 0 1 -1.55-11.8l26.26-7a6 6 0 0 1 3.1 11.59l-26.26 7a6 6 0 0 1 -1.55.21z"></path><path d="m215.44 292.47a6 6 0 0 1 -5.79-4.44l-7-26.26a6 6 0 1 1 11.59-3.11l7 26.26a6 6 0 0 1 -5.8 7.55z"></path><path d="m280.77 301.58a6 6 0 0 1 -3-11.19l41.65-24a6 6 0 1 1 6 10.39l-41.65 24a5.91 5.91 0 0 1 -3 .8z"></path><path d="m189.59 354.23a6 6 0 0 1 -3-11.2l25.86-14.93.22-.12 15.57-9a6 6 0 1 1 6 10.38l-15.78 9.13-.22.12-25.65 14.8a5.9 5.9 0 0 1 -3 .82z"></path><path d="m322.81 299.51a6 6 0 0 1 -1.55-.21l-26.26-7a6 6 0 0 1 3.1-11.59l26.26 7a6 6 0 0 1 -1.55 11.8z"></path><path d="m296.56 292.47a6 6 0 0 1 -5.8-7.55l7-26.26a6 6 0 1 1 11.59 3.11l-7 26.26a6 6 0 0 1 -5.79 4.44z"></path><path d="m208.42 365.56a6 6 0 0 1 -5.8-7.56l7-26.25a6 6 0 1 1 11.59 3.1l-7 26.26a6 6 0 0 1 -5.79 4.45z"></path><path d="m215.45 339.3a6 6 0 0 1 -1.55-.21l-26.26-7a6 6 0 0 1 3.1-11.59l26.26 7a6 6 0 0 1 -1.55 11.8z"></path></g></g></svg>